<?xml version="1.0" encoding="UTF-8"?>
<svg id="Layer_1" data-name="Layer 1" xmlns="http://www.w3.org/2000/svg" viewBox="0 0 119.52 197.94">
  <defs>
    <style>
      .cls-1 {
        fill: none;
      }

      .cls-2 {
        fill: #fff;
      }
    </style>
  </defs>
  <path class="cls-2" d="M43.84,107.29c.02-.4,.06-.78,.06-1.17,0-1.64,0-3.28,0-4.91,0-3.2,.25-3.43,3.51-2.91,.26,.04,.62,.54,.64,.85,.08,1.07,.03,2.15,.03,3.23,0,6.55,0,13.1-.01,19.65,0,.44-.16,1.26-.28,1.27-.6,.04-1.23-.06-1.8-.27-.43-.15-.77-.54-1.13-.8-4.65,2.73-8.62,2.48-11.76-.69-2.83-2.86-3.4-7.5-1.34-10.96,2.43-4.07,6.04-5.08,12.08-3.31Zm-9.11,7.95c.02,2.59,2.1,4.71,4.6,4.7,2.48,0,4.57-2.18,4.57-4.75,0-2.58-2.23-4.88-4.67-4.81-2.43,.07-4.52,2.33-4.5,4.85Z"/>
  <path class="cls-2" d="M93.09,37.76v2.64c0,3.83,0,7.67-.01,11.5,0,.41-.1,1.16-.24,1.18-.55,.08-1.14-.06-1.71-.14-.11-.01-.21-.12-.29-.2-.74-.76-1.38-.61-2.25-.04-3.41,2.23-8.13,1.55-10.94-1.48-2.91-3.13-3.21-8.01-.71-11.5,2.43-3.39,6.87-4.67,10.64-2.84,1.39,.67,2.73,.98,4.22,.88,.35-.02,.71,0,1.29,0Zm-9.09,12.04c2.52,.01,4.66-2.18,4.65-4.78,0-2.53-2.14-4.75-4.57-4.76-2.51,0-4.65,2.21-4.64,4.79,.01,2.55,2.1,4.72,4.56,4.74Z"/>
  <path class="cls-2" d="M35.81,73.6c-.91,0-1.48,0-2.06,0-2.48,0-4.95-.03-7.43,.01-.82,.01-1.1-.24-1.1-1.09-.02-3.1-.05-3.1,3.03-3.1,4.35,0,8.7,.03,13.06-.02,.95,0,1.22,.28,1.21,1.23-.03,3.08,0,3.07-2.42,5.04-2.44,2-4.87,4.01-7.3,6.02-.17,.14-.3,.33-.6,.67h10.18v4.12c-.37,.03-.75,.08-1.13,.08-4.91,0-9.82-.03-14.73,.03-1.1,.01-1.23-.37-1.33-1.36-.21-2,.46-3.32,2.09-4.52,2.6-1.92,5-4.09,7.49-6.16,.26-.22,.51-.47,1.04-.96Z"/>
  <path class="cls-2" d="M74.49,117.85c1.19,.63,2.34,1.24,3.56,1.89-.98,2.05-2.54,3.28-4.51,3.97-5.33,1.88-10.76-1.96-10.94-7.62-.1-3.14,.43-5.96,3-8.07,4.38-3.6,11.35-1.61,12.98,3.81,.4,1.33,.25,2.82,.36,4.4h-11.97c-.03,1.64,.86,2.89,2.37,3.46,1.8,.68,3.38,.14,5.15-1.85Zm-6.78-5.82h6.16c-1.25-2.19-5.07-2.04-6.16,0Z"/>
  <path class="cls-2" d="M105.36,86.57c0-1.51,0-2.9,0-4.29,0-1.44,0-2.88,0-4.32-.01-2.88-2-5.09-4.6-5.13-2.68-.04-4.78,2.12-4.84,5.04-.05,2.52,0,5.04-.01,7.55,0,.31-.04,.63-.07,1.13-1.22,0-2.4,.06-3.56-.05-.22-.02-.55-.68-.55-1.05-.04-4.04-.04-8.07-.02-12.11,0-1.26-.34-2.93,.31-3.67,.57-.64,2.32-.18,3.55-.27,.78-.06,1.59-.14,2.33-.37,5.78-1.76,11.59,2.47,11.65,8.53,.03,2.64-.02,5.28,.02,7.91,.01,.82-.22,1.16-1.08,1.1-.99-.06-1.98-.01-3.14-.01Z"/>
  <path class="cls-2" d="M68.08,87.29c-4.87,0-8.77-3.92-8.78-8.84-.01-5.08,3.88-9.05,8.85-9.03,4.82,.02,8.73,4.01,8.75,8.92,.02,4.97-3.9,8.95-8.82,8.95Zm-4.57-8.96c-.02,2.64,2.07,4.84,4.59,4.85,2.41,.01,4.58-2.23,4.61-4.75,.03-2.57-2.14-4.84-4.63-4.84-2.49,0-4.55,2.14-4.57,4.73Z"/>
  <path class="cls-2" d="M79.75,157.35c-1.22-.49-2.2-.89-3.38-1.37-2,1.45-4.46,2.15-7.21,1.71-4.22-.67-7.44-4.27-7.5-8.53-.05-2.92,0-5.83,0-8.75,0-.11,.05-.22,.11-.42h4.14c0,.99,0,1.94,0,2.89,0,2-.02,4,0,5.99,.04,2.69,2.19,4.8,4.84,4.79,2.7-.01,4.82-2.06,4.87-4.75,.04-2.52,0-5.04,0-7.55,0-.43,0-.86,0-1.37h4.12v17.36Z"/>
  <path class="cls-2" d="M20.4,53.98c-4.9-.01-8.7-3.99-8.68-9.06,.02-4.92,3.93-8.85,8.79-8.84,4.87,0,8.83,4.07,8.79,9.02-.04,4.98-3.97,8.9-8.9,8.88Zm.11-4.19c2.45,0,4.56-2.18,4.6-4.72,.04-2.54-2.18-4.84-4.65-4.81-2.47,.02-4.55,2.19-4.56,4.74-.01,2.63,2.07,4.79,4.61,4.79Z"/>
  <path class="cls-2" d="M41.34,8.19c-.95,.96-1.89,1.91-2.84,2.87-2.58-1.81-5.13-1.68-6.94,.4-1.51,1.73-1.53,4.52-.03,6.15,1.93,2.11,4.42,2.27,6.9,.46,.98,.96,1.96,1.92,2.94,2.87-3.04,3.43-9.1,3.43-12.56-.02-3.69-3.68-3.43-9.7,.56-13.21,3.42-3.01,9.43-2.75,11.97,.49Z"/>
  <path class="cls-2" d="M44.87,145.5c-1.18,0-2.29,.05-3.39-.03-.28-.02-.52-.45-.82-.64-.4-.26-.93-.74-1.24-.63-.42,.14-.88,.72-.94,1.17-.05,.32,.45,.88,.83,1.08,.96,.48,2.03,.73,2.98,1.21,2.32,1.18,3.28,3.86,2.39,6.47-.88,2.57-3.31,4.08-5.87,3.65-2.63-.45-4.54-2.73-4.5-5.52,1.21,0,2.44-.04,3.66,.03,.24,.01,.42,.5,.68,.69,.36,.25,.86,.67,1.16,.57,.4-.13,.86-.66,.91-1.06,.04-.36-.35-.96-.71-1.15-.99-.51-2.1-.76-3.09-1.27-2.38-1.22-3.33-3.97-2.36-6.58,.96-2.6,3.53-4.04,6.21-3.49,2.43,.51,4.2,2.8,4.09,5.5Z"/>
  <path class="cls-2" d="M95.8,123.36h-4.01v-25h4.01v25Z"/>
  <path class="cls-2" d="M47.4,36.45c.71,0,1.31,.05,1.9,0,1.69-.16,3.38-.39,5.07-.55,1.26-.12,2.52-.17,3.89-.26v4.29c-.67,0-1.3,0-1.93,0-2.7,.01-4.76,2.05-4.78,4.78-.02,2.52,0,5.04,0,7.55,0,.43-.04,.85-.06,1.31h-4.08v-17.11Z"/>
  <path class="cls-2" d="M34.15,190.74v-16.92c.1-.08,.16-.17,.22-.18,3.16-.27,6.32-.53,9.48-.78,.39-.03,.78,.03,1.32,.06,0,1.18,.04,2.28-.03,3.38-.01,.23-.38,.57-.63,.62-.54,.11-1.12,.02-1.67,.08-2.75,.29-4.5,2.18-4.54,4.95-.03,2.52-.06,5.04,.02,7.55,.03,1.03-.33,1.33-1.3,1.25-.91-.07-1.82-.02-2.87-.02Z"/>
  <path class="cls-2" d="M74.11,59.54c-.92,1.9-1.69,3.54-2.52,5.16-.12,.23-.47,.47-.72,.48-1.46,.05-2.93,.02-4.65,.02,.91-1.9,1.71-3.61,2.56-5.29,.1-.19,.45-.35,.69-.36,1.46-.03,2.93-.02,4.65-.02Z"/>
  <path class="cls-1" d="M34.73,115.24c-.02-2.53,2.07-4.79,4.5-4.85,2.44-.07,4.67,2.23,4.67,4.81,0,2.56-2.1,4.74-4.57,4.75-2.5,0-4.58-2.12-4.6-4.7Z"/>
</svg>