<svg width="36" height="36" viewBox="0 0 36 36" fill="none" xmlns="http://www.w3.org/2000/svg">
<path d="M22.5 29.82C22.56 30.27 22.41 30.75 22.065 31.065C21.48 31.65 20.535 31.65 19.95 31.065L13.935 25.05C13.59 24.705 13.44 24.24 13.5 23.805V16.125L6.31503 6.93C5.80503 6.285 5.92503 5.34 6.57003 4.83C6.85503 4.62 7.17003 4.5 7.50003 4.5H28.5C28.83 4.5 29.145 4.62 29.43 4.83C30.075 5.34 30.195 6.285 29.685 6.93L22.5 16.125V29.82ZM10.56 7.5L16.5 15.09V23.37L19.5 26.37V15.075L25.44 7.5H10.56Z" fill="#949494"/>
</svg>
