<svg width="37" height="36" viewBox="0 0 37 36" fill="none" xmlns="http://www.w3.org/2000/svg">
<path d="M18.5 6C20.0913 6 21.6174 6.63214 22.7426 7.75736C23.8679 8.88258 24.5 10.4087 24.5 12C24.5 13.5913 23.8679 15.1174 22.7426 16.2426C21.6174 17.3679 20.0913 18 18.5 18C16.9087 18 15.3826 17.3679 14.2574 16.2426C13.1321 15.1174 12.5 13.5913 12.5 12C12.5 10.4087 13.1321 8.88258 14.2574 7.75736C15.3826 6.63214 16.9087 6 18.5 6ZM18.5 9C17.7044 9 16.9413 9.31607 16.3787 9.87868C15.8161 10.4413 15.5 11.2044 15.5 12C15.5 12.7956 15.8161 13.5587 16.3787 14.1213C16.9413 14.6839 17.7044 15 18.5 15C19.2956 15 20.0587 14.6839 20.6213 14.1213C21.1839 13.5587 21.5 12.7956 21.5 12C21.5 11.2044 21.1839 10.4413 20.6213 9.87868C20.0587 9.31607 19.2956 9 18.5 9ZM18.5 19.5C22.505 19.5 30.5 21.495 30.5 25.5V30H6.5V25.5C6.5 21.495 14.495 19.5 18.5 19.5ZM18.5 22.35C14.045 22.35 9.35 24.54 9.35 25.5V27.15H27.65V25.5C27.65 24.54 22.955 22.35 18.5 22.35Z" fill="white"/>
</svg>
