<svg width="37" height="36" viewBox="0 0 37 36" fill="none" xmlns="http://www.w3.org/2000/svg">
<g clip-path="url(#clip0_200_396)">
<path d="M26 27C26.7957 27 27.5587 27.3161 28.1213 27.8787C28.6839 28.4413 29 29.2044 29 30C29 30.7956 28.6839 31.5587 28.1213 32.1213C27.5587 32.6839 26.7957 33 26 33C24.335 33 23 31.65 23 30C23 28.335 24.335 27 26 27ZM2 3H6.905L8.315 6H30.5C30.8978 6 31.2794 6.15804 31.5607 6.43934C31.842 6.72064 32 7.10218 32 7.5C32 7.755 31.925 8.01 31.82 8.25L26.45 17.955C25.94 18.87 24.95 19.5 23.825 19.5H12.65L11.3 21.945L11.255 22.125C11.255 22.2245 11.2945 22.3198 11.3648 22.3902C11.4352 22.4605 11.5305 22.5 11.63 22.5H29V25.5H11C9.335 25.5 8 24.15 8 22.5C8 21.975 8.135 21.48 8.36 21.06L10.4 17.385L5 6H2V3ZM11 27C11.7957 27 12.5587 27.3161 13.1213 27.8787C13.6839 28.4413 14 29.2044 14 30C14 30.7956 13.6839 31.5587 13.1213 32.1213C12.5587 32.6839 11.7957 33 11 33C9.335 33 8 31.65 8 30C8 28.335 9.335 27 11 27ZM24.5 16.5L28.67 9H9.71L13.25 16.5H24.5Z" fill="white"/>
<path d="M36 6.13636C36 9.24924 33.4765 11.7727 30.3637 11.7727C27.2508 11.7727 24.7273 9.24924 24.7273 6.13636C24.7273 3.02349 27.2508 0.5 30.3637 0.5C33.4765 0.5 36 3.02349 36 6.13636Z" fill="#ED6F7E" stroke="#FEB4BC"/>
</g>
<defs>
<clipPath id="clip0_200_396">
<rect width="36" height="36" fill="white" transform="translate(0.5)"/>
</clipPath>
</defs>
</svg>
